
<svg version="1.0" xmlns="http://www.w3.org/2000/svg"
 width="500.000000pt" height="210.000000pt" viewBox="0 0 500.000000 40.000000"
 preserveAspectRatio="xMidYMid meet">

<g transform="translate(0.000000,300.000000) scale(0.100000,-0.10000)"
fill="#000000" stroke="none">
<path fill="rgb(225, 48, 48)" d="M2026 3434 c-19 -19 -20 -41 -3 -74 12 -23 10 -32 -29 -105 -24 -44
-54 -118 -68 -165 -24 -84 -24 -85 -36 -55 -53 132 -82 226 -81 261 0 30 -6
47 -22 61 -47 43 -77 34 -77 -24 0 -25 7 -37 28 -50 15 -9 28 -18 30 -19 2 -1
-2 -28 -8 -61 -7 -32 -15 -116 -19 -186 l-6 -128 -60 47 c-80 63 -236 164
-253 164 -9 0 -11 7 -7 19 4 13 -1 24 -17 35 -34 24 -67 20 -78 -10 -15 -38 3
-64 43 -64 26 0 42 -9 73 -42 23 -24 51 -58 64 -76 12 -19 33 -45 46 -59 13
-14 24 -32 24 -39 0 -8 4 -14 10 -14 13 0 63 -100 55 -108 -4 -4 -58 -9 -121
-10 l-114 -4 0 -309 0 -309 195 0 195 0 0 85 0 85 -85 0 -85 0 0 40 0 40 65 0
65 0 0 70 0 70 -65 0 -65 0 0 35 0 35 80 0 c79 0 80 0 80 25 0 16 6 25 15 25
13 0 15 -35 15 -255 l0 -255 195 0 195 0 0 85 0 85 -85 0 -85 0 0 40 0 40 65
0 65 0 0 70 0 70 -65 0 -65 0 0 35 0 35 80 0 80 0 0 80 0 80 -45 0 c-25 0 -45
4 -45 9 0 5 -28 7 -62 4 -78 -5 -65 5 57 47 97 32 100 34 90 49 -6 11 -26 10
-55 -2 -27 -11 -214 -78 -265 -95 -27 -9 -57 -23 -65 -31 -13 -13 -15 -12 -18
2 -3 12 -14 17 -40 17 -21 0 -32 4 -27 9 6 5 108 41 228 81 184 61 217 75 211
89 -37 89 -74 266 -74 357 0 83 27 80 54 -7 10 -33 15 -40 20 -27 5 9 0 32
-10 53 -14 31 -15 43 -6 69 7 18 12 40 12 49 0 40 -92 63 -124 31z m84 -30
c11 -13 10 -19 -8 -36 -17 -18 -23 -19 -36 -8 -9 7 -16 23 -16 36 0 19 5 24
24 24 13 0 29 -7 36 -16z m-326 -59 c7 -21 -32 -61 -46 -47 -16 16 -1 62 21
62 10 0 21 -7 25 -15z m281 -241 c8 -45 24 -107 35 -139 11 -32 19 -59 18 -59
-2 -1 -98 -33 -215 -71 l-211 -71 -17 28 c-16 27 -94 127 -166 212 l-34 40 64
-43 c35 -24 99 -72 143 -107 83 -68 115 -81 104 -41 -15 47 -17 203 -4 271
l13 70 33 -87 c74 -195 104 -236 110 -151 1 21 7 63 13 92 9 44 13 51 25 41 9
-7 14 -8 14 -1 0 6 -4 13 -9 17 -11 6 22 108 47 145 l17 25 3 -45 c1 -25 9
-82 17 -126z m-687 19 c-5 -23 -23 -20 -26 4 -3 18 0 21 13 17 9 -4 15 -13 13
-21z m427 -462 c-3 -6 -11 -11 -17 -11 -6 0 -6 6 2 15 14 17 26 13 15 -4z"/>
<path d="M2360 2738 c-107 -30 -163 -141 -130 -258 17 -61 65 -97 176 -133 80
-26 100 -36 102 -53 8 -54 -71 -56 -91 -3 -10 27 -16 30 -42 25 -16 -3 -61 -8
-98 -12 l-69 -7 6 -31 c12 -57 42 -100 91 -131 46 -28 54 -30 155 -30 101 0
109 2 156 30 64 40 94 96 94 180 0 104 -51 156 -190 194 -85 24 -110 42 -94
69 17 26 47 21 62 -11 8 -16 19 -26 26 -24 7 3 47 11 89 17 71 12 77 15 77 37
0 55 -57 117 -129 142 -41 13 -142 13 -191 -1z"/>
<path d="M420 2420 l0 -310 44 0 43 0 13 -95 c13 -97 26 -116 48 -72 7 12 16
40 20 62 l9 40 6 -30 c3 -16 9 -48 12 -69 6 -39 6 -39 26 -19 15 14 26 51 39
133 11 63 18 115 16 117 -8 8 -29 -30 -41 -74 -13 -47 -13 -45 -14 75 l-1 122
55 0 55 0 0 79 0 80 -52 3 -53 3 -3 43 -3 42 85 0 86 0 0 90 0 90 -195 0 -195
0 0 -310z m150 -337 c0 -22 -2 -25 -10 -13 -13 20 -13 40 0 40 6 0 10 -12 10
-27z"/>
<path d="M830 2445 c0 -283 0 -285 -20 -273 -26 17 -49 3 -73 -43 -24 -45 -21
-180 4 -205 38 -37 88 29 96 128 9 91 23 68 23 -37 0 -52 4 -95 8 -95 8 0 26
30 35 60 3 10 11 1 21 -22 18 -41 32 -47 51 -21 10 14 8 24 -10 58 -19 36 -20
45 -8 60 7 11 13 27 13 37 0 11 7 18 20 18 19 0 20 -7 20 -95 l0 -95 39 0 c40
0 68 20 56 41 -4 6 -18 9 -31 6 l-24 -4 0 179 0 179 23 -3 c18 -2 24 -13 33
-61 7 -32 17 -71 24 -88 9 -21 11 -62 6 -145 l-8 -115 30 15 c42 22 70 60 87
121 15 50 17 52 64 64 77 20 84 28 71 82 -9 37 -16 45 -33 45 -18 -1 -23 7
-32 48 -6 28 -19 56 -31 65 -21 16 -21 16 19 52 39 34 41 39 45 101 5 85 -10
130 -59 172 -55 47 -102 56 -293 56 l-166 0 0 -285z m288 123 c16 -16 16 -80
0 -96 -7 -7 -25 -12 -40 -12 -28 0 -28 1 -28 60 0 59 0 60 28 60 15 0 33 -5
40 -12z m-330 -463 c15 -32 16 -131 2 -140 -16 -10 -30 41 -30 106 0 63 10 75
28 34z m147 -15 c7 -21 -9 -50 -26 -50 -5 0 -9 16 -9 35 0 39 24 49 35 15z
m283 -12 c4 -38 -15 -105 -33 -112 -12 -4 -15 7 -15 70 0 72 1 75 23 72 15 -2
23 -11 25 -30z"/>
<path d="M2730 2640 l0 -89 63 -3 62 -3 3 -217 2 -218 110 0 110 0 0 220 0
220 65 0 65 0 0 90 0 90 -240 0 -240 0 0 -90z"/>
<path d="M3220 2722 c0 -4 38 -97 85 -206 l85 -197 0 -105 0 -104 110 0 110 0
1 108 0 107 83 200 83 200 -110 3 c-72 2 -113 -1 -117 -8 -4 -6 -15 -56 -25
-111 -10 -54 -21 -99 -25 -99 -3 0 -14 34 -24 76 -10 42 -22 92 -28 110 l-9
34 -109 0 c-61 0 -110 -4 -110 -8z"/>
<path d="M3790 2420 l0 -310 195 0 195 0 0 95 0 94 -82 3 -83 3 -3 213 -2 212
-110 0 -110 0 0 -310z"/>
<path d="M4210 2420 l0 -310 195 0 195 0 0 85 0 85 -90 0 -90 0 0 40 0 40 65
0 65 0 0 70 0 70 -65 0 -65 0 0 35 0 35 85 0 85 0 0 80 0 80 -190 0 -190 0 0
-310z"/>
</g>
</svg>
